<?xml version="1.0" encoding="utf-8"?>
<!-- Generator: Adobe Illustrator 20.1.0, SVG Export Plug-In . SVG Version: 6.00 Build 0)  -->
<svg version="1.1" id="Layer_1" xmlns="http://www.w3.org/2000/svg" xmlns:xlink="http://www.w3.org/1999/xlink" x="0px" y="0px"
	 viewBox="0 0 180 160" style="enable-background:new 0 0 180 160;" xml:space="preserve">
<style type="text/css">
	.st0{display:none;}
</style>
<g>
	<path class="st0" d="M-47.8,211.6c0-94.6,0-189.2,0-283.8c88.5,0,177.1,0,265.6,0c0,94.6,0,189.2,0,283.8
		C129.3,211.6,40.7,211.6-47.8,211.6z M203.3,80.5c0-62.4-50-112.5-112.8-113C28.5-32.9-22.6,17.9-22.7,80
		c0,62.4,50,112.5,112.8,113C152.2,193.5,203.3,142.6,203.3,80.5z"/>
	<path class="st0" d="M203.3,80.5c0,62.1-51.2,113-113.2,112.5C27.4,192.6-22.7,142.4-22.7,80c0-62.1,51.1-113,113.2-112.5
		C153.3-32.1,203.3,18.1,203.3,80.5z M75.5,8.2C74.8,7.5,74,6.8,73.2,6c-2.1,1.7-4.6,3.2-6.3,5.2c-14.6,18-13.4,44.8,2.8,61.6
		C78.7,82.2,88,91,97,100.3c10.5,10.9,11,26.3,1.6,37.8c-9.3,11.4-25.6,13.7-38.2,5.4c-1.5-1-2.7-2.4-4.3-3
		c-1.2-0.4-2.7,0.1-4.1,0.3c0.2,1.3,0.1,3,0.8,3.9c1.5,1.7,3.3,3.1,5.2,4.3c14.6,9.2,34.2,6,45.2-7.3c11-13.4,10.3-32.4-2.1-45.6
		c-8.8-9.4-18.5-17.9-27.3-27.3c-14.6-15.7-15.2-37-2.4-54C73,12.7,74.2,10.4,75.5,8.2z M105.1,152c0.7,0.8,1.5,1.6,2.2,2.4
		c2.1-1.6,4.6-2.9,6.2-4.9c14.7-17.8,13.7-44.9-2.3-61.6c-8.7-9.1-17.9-17.8-26.7-26.9c-11.3-11.5-12.1-27.3-2.1-38.9
		c9.8-11.5,25.9-13.2,39-4.6c2,1.3,5,1.3,7.6,1.9c-1.6-2.3-3.1-4.6-4.7-6.8c-0.4-0.6-1.2-0.9-1.9-1.3c-14.5-8.9-33.7-5.8-44.6,7.3
		C66.5,32,67,50.9,79.3,64.2c8.6,9.2,18.1,17.6,26.8,26.8c15.3,15.9,16.2,37.7,2.8,55.2C107.5,148,106.3,150,105.1,152z M114.9,55.4
		c0.9,0.5,1.7,0.9,2.6,1.4c1.6-1.7,3.5-3.2,4.7-5.1c5.8-8.9,3.6-21.5-4.7-27.9c-8.8-6.8-21.3-5.9-28.9,2.2c-7.5,8-7.9,20.6-0.1,28.9
		c8.4,9,17.3,17.7,26.2,26.3c9.9,9.6,14.9,21.4,16.7,34.8c0.3,2.3,2,4.4,3,6.5c0.8-2.6,2.6-5.2,2.4-7.6
		c-1.4-14.6-7.2-27.2-17.7-37.6c-8.2-8.2-16.6-16.3-24.8-24.5c-4.8-4.8-7.3-10.3-4.9-17.1c3-8.7,12.7-13,20.9-9.4
		c8.7,3.8,11.8,13.8,7.2,22.3C116.4,50.7,115.7,53.1,114.9,55.4z M65.6,105c-0.8-0.3-1.5-0.7-2.3-1c-1.3,1.1-2.8,2-3.8,3.3
		c-6.6,8.4-5.2,21.8,2.9,28.8c8.4,7.3,21,7,29-0.7c8.2-7.8,8.9-20.9,1-29.4C84,96.9,75.1,88.2,66.2,79.6
		c-10.1-9.8-15.2-21.7-17-35.5c-0.3-2.1-1.7-4.1-2.6-6.1c-1,2.2-2.9,4.5-2.8,6.6c1.2,14.8,6.9,27.8,17.5,38.4
		c8.4,8.4,17,16.6,25.3,25.1c6.8,7,7.3,15.2,1.8,21.7c-5.4,6.3-13.7,7.6-20.4,3.1c-7.5-5.1-9-13.2-4.2-22
		C64.8,109.2,65,107,65.6,105z"/>
	<path d="M75.5,8.2c-1.3,2.2-2.5,4.5-4.1,6.5c-12.9,17-12.2,38.3,2.4,54c8.8,9.4,18.5,18,27.3,27.3c12.4,13.2,13.1,32.2,2.1,45.6
		C92.2,155,72.6,158.2,58,149c-1.9-1.2-3.8-2.6-5.2-4.3c-0.8-0.9-0.6-2.6-0.8-3.9c1.4-0.1,2.9-0.7,4.1-0.3c1.6,0.6,2.9,2,4.3,3
		c12.6,8.3,28.9,6,38.2-5.4c9.4-11.5,8.9-26.9-1.6-37.8C88,91,78.7,82.2,69.7,72.9c-16.2-16.8-17.4-43.6-2.8-61.6
		c1.7-2.1,4.2-3.5,6.3-5.2C74,6.8,74.8,7.5,75.5,8.2z"/>
	<path d="M105.1,152c1.3-2,2.4-4.1,3.9-5.9c13.4-17.4,12.4-39.2-2.8-55.2c-8.7-9.1-18.2-17.5-26.8-26.8C67,50.9,66.5,32,77.7,18.6
		c10.9-13,30.1-16.2,44.6-7.3c0.6,0.4,1.4,0.7,1.9,1.3c1.6,2.2,3.2,4.5,4.7,6.8c-2.5-0.6-5.5-0.5-7.6-1.9c-13.1-8.6-29.2-6.9-39,4.6
		c-10,11.7-9.2,27.4,2.1,38.9c8.8,9,18,17.7,26.7,26.9c16.1,16.8,17.1,43.9,2.3,61.6c-1.6,2-4.1,3.3-6.2,4.9
		C106.5,153.6,105.8,152.8,105.1,152z"/>
	<path d="M114.9,55.4c0.9-2.3,1.5-4.8,2.7-6.9c4.6-8.6,1.5-18.5-7.2-22.3c-8.2-3.6-17.8,0.7-20.9,9.4c-2.4,6.8,0.1,12.4,4.9,17.1
		c8.2,8.2,16.6,16.3,24.8,24.5c10.4,10.4,16.2,23,17.7,37.6c0.2,2.4-1.5,5.1-2.4,7.6c-1-2.2-2.7-4.3-3-6.5
		c-1.9-13.4-6.8-25.2-16.7-34.8c-8.9-8.6-17.8-17.3-26.2-26.3c-7.8-8.3-7.5-20.9,0.1-28.9c7.6-8.1,20.1-9,28.9-2.2
		c8.3,6.5,10.6,19,4.7,27.9c-1.3,1.9-3.1,3.4-4.7,5.1C116.6,56.4,115.7,55.9,114.9,55.4z"/>
	<path d="M65.6,105c-0.6,2-0.8,4.3-1.8,6.1c-4.8,8.7-3.3,16.9,4.2,22c6.7,4.5,15,3.2,20.4-3.1c5.5-6.5,5-14.7-1.8-21.7
		c-8.3-8.5-16.9-16.7-25.3-25.1C50.7,72.5,45,59.5,43.8,44.7c-0.2-2.1,1.8-4.4,2.8-6.6c0.9,2,2.4,4,2.6,6.1
		c1.8,13.7,6.9,25.7,17,35.5C75.1,88.2,84,96.9,92.4,106c7.9,8.5,7.1,21.6-1,29.4c-8,7.7-20.6,8-29,0.7c-8.1-7-9.5-20.4-2.9-28.8
		c1-1.3,2.6-2.2,3.8-3.3C64.1,104.3,64.8,104.6,65.6,105z"/>
</g>
</svg>
